REM DIRINDEX 1\2,1\3,1\4,1\5,1\6
REM DIRNAME folder01,folder02,folder03,folder04,folder05,folder06
TITLE ""
FILE "DISC3Track16.mp3" MP3
  TRACK 01 AUDIO
    TITLE "0:"
    INDEX 01 00:00:00
  TRACK 02 AUDIO
    TITLE "3:cjc129_2494"
    INDEX 01 00:00:05
  TRACK 03 AUDIO
    TITLE "0:"
    INDEX 01 00:05:05
  TRACK 04 AUDIO
    TITLE "5:cjc129_2495"
    INDEX 01 00:05:36
  TRACK 05 AUDIO
    TITLE "0:"
    INDEX 01 00:11:17
  TRACK 06 AUDIO
    TITLE "4:cjc129_2496"
    INDEX 01 00:12:09
  TRACK 07 AUDIO
    TITLE "0:"
    INDEX 01 00:17:08
  TRACK 08 AUDIO
    TITLE "6:cjc129_2497"
    INDEX 01 00:17:39
  TRACK 09 AUDIO
    TITLE "0:"
    INDEX 01 00:21:57
  TRACK 10 AUDIO
    TITLE "3:cjc129_2498"
    INDEX 01 00:23:34
  TRACK 11 AUDIO
    TITLE "0:"
    INDEX 01 00:25:46
  TRACK 12 AUDIO
    TITLE "5:cjc129_2499"
    INDEX 01 00:26:03
  TRACK 13 AUDIO
    TITLE "0:"
    INDEX 01 00:28:02
  TRACK 14 AUDIO
    TITLE "4:cjc129_2500"
    INDEX 01 00:28:66
  TRACK 15 AUDIO
    TITLE "0:"
    INDEX 01 00:31:02
  TRACK 16 AUDIO
    TITLE "6:cjc129_2501"
    INDEX 01 00:31:35
  TRACK 17 AUDIO
    TITLE "0:"
    INDEX 01 00:35:53
  TRACK 18 AUDIO
    TITLE "3:cjc129_2502"
    INDEX 01 00:37:28
  TRACK 19 AUDIO
    TITLE "0:"
    INDEX 01 00:39:52
  TRACK 20 AUDIO
    TITLE "5:cjc129_2503"
    INDEX 01 00:40:09
  TRACK 21 AUDIO
    TITLE "0:"
    INDEX 01 00:42:02
  TRACK 22 AUDIO
    TITLE "4:cjc129_2504"
    INDEX 01 00:42:66
  TRACK 23 AUDIO
    TITLE "0:"
    INDEX 01 00:45:16
  TRACK 24 AUDIO
    TITLE "6:cjc129_2505"
    INDEX 01 00:45:47
  TRACK 25 AUDIO
    TITLE "0:"
    INDEX 01 00:50:09
  TRACK 26 AUDIO
    TITLE "3:cjc129_2506"
    INDEX 01 00:51:56
  TRACK 27 AUDIO
    TITLE "0:"
    INDEX 01 00:53:64
  TRACK 28 AUDIO
    TITLE "5:cjc129_2507"
    INDEX 01 00:54:21
  TRACK 29 AUDIO
    TITLE "0:"
    INDEX 01 00:58:50
  TRACK 30 AUDIO
    TITLE "4:cjc129_2508"
    INDEX 01 00:59:41
  TRACK 31 AUDIO
    TITLE "0:"
    INDEX 01 01:01:50
  TRACK 32 AUDIO
    TITLE "6:cjc129_2509"
    INDEX 01 01:02:05
  TRACK 33 AUDIO
    TITLE "0:"
    INDEX 01 01:06:00
  TRACK 34 AUDIO
    TITLE "3:cjc129_2510"
    INDEX 01 01:07:49
  TRACK 35 AUDIO
    TITLE "0:"
    INDEX 01 01:09:57
  TRACK 36 AUDIO
    TITLE "5:cjc129_2511"
    INDEX 01 01:10:10
  TRACK 37 AUDIO
    TITLE "0:"
    INDEX 01 01:14:19
  TRACK 38 AUDIO
    TITLE "4:cjc129_2512"
    INDEX 01 01:15:11
  TRACK 39 AUDIO
    TITLE "0:"
    INDEX 01 01:17:20
  TRACK 40 AUDIO
    TITLE "6:cjc129_2513"
    INDEX 01 01:17:49
  TRACK 41 AUDIO
    TITLE "0:"
    INDEX 01 01:23:38
  TRACK 42 AUDIO
    TITLE "3:cjc129_2514"
    INDEX 01 01:25:15
  TRACK 43 AUDIO
    TITLE "0:"
    INDEX 01 01:27:34
  TRACK 44 AUDIO
    TITLE "5:cjc129_2515"
    INDEX 01 01:27:65
  TRACK 45 AUDIO
    TITLE "0:"
    INDEX 01 01:29:74
  TRACK 46 AUDIO
    TITLE "4:cjc129_2516"
    INDEX 01 01:30:28
  TRACK 47 AUDIO
    TITLE "0:"
    INDEX 01 01:32:47
  TRACK 48 AUDIO
    TITLE "6:cjc129_2517"
    INDEX 01 01:33:03
  TRACK 49 AUDIO
    TITLE "0:"
    INDEX 01 01:37:73
  TRACK 50 AUDIO
    TITLE "3:cjc129_2518"
    INDEX 01 01:39:45
  TRACK 51 AUDIO
    TITLE "0:"
    INDEX 01 01:41:44
  TRACK 52 AUDIO
    TITLE "5:cjc129_2519"
    INDEX 01 01:42:00
  TRACK 53 AUDIO
    TITLE "0:"
    INDEX 01 01:48:58
  TRACK 54 AUDIO
    TITLE "4:cjc129_2520"
    INDEX 01 01:49:47
  TRACK 55 AUDIO
    TITLE "0:"
    INDEX 01 01:51:44
  TRACK 56 AUDIO
    TITLE "6:cjc129_2521"
    INDEX 01 01:52:00
  TRACK 57 AUDIO
    TITLE "0:"
    INDEX 01 01:56:49
  TRACK 58 AUDIO
    TITLE "3:cjc129_2522"
    INDEX 01 01:58:23
  TRACK 59 AUDIO
    TITLE "0:"
    INDEX 01 02:00:41
  TRACK 60 AUDIO
    TITLE "5:cjc129_2523"
    INDEX 01 02:00:74
  TRACK 61 AUDIO
    TITLE "0:"
    INDEX 01 02:05:56
  TRACK 62 AUDIO
    TITLE "4:cjc129_2524"
    INDEX 01 02:06:44
  TRACK 63 AUDIO
    TITLE "0:"
    INDEX 01 02:08:62
  TRACK 64 AUDIO
    TITLE "6:cjc129_2525"
    INDEX 01 02:09:22
  TRACK 65 AUDIO
    TITLE "0:"
    INDEX 01 02:13:40
